<svg width="15" height="13" viewBox="0 0 15 13" fill="none" xmlns="http://www.w3.org/2000/svg">
<path d="M12.8033 0.196698C13.561 0.954413 14.1476 1.8657 14.5234 2.86918C14.8993 3.87266 15.0558 4.94504 14.9824 6.01409C14.9089 7.08314 14.6072 8.12404 14.0976 9.06668C13.588 10.0093 12.8824 10.8318 12.0281 11.4788C11.1739 12.1258 10.191 12.5822 9.14551 12.8173C8.10005 13.0524 7.01635 13.0607 5.96739 12.8417C4.91843 12.6228 3.92858 12.1816 3.06449 11.5478C2.2004 10.9141 1.48214 10.1026 0.958086 9.16788L3.48972 7.74846C3.81097 8.32144 4.25127 8.81892 4.78097 9.2074C5.31067 9.59589 5.91746 9.86635 6.56049 10.0006C7.20352 10.1348 7.86784 10.1297 8.50872 9.98558C9.1496 9.84146 9.75216 9.56168 10.2758 9.16508C10.7995 8.76848 11.2321 8.26428 11.5444 7.68643C11.8568 7.10857 12.0418 6.47049 12.0868 5.81514C12.1318 5.1598 12.0359 4.50242 11.8055 3.88727C11.575 3.27212 11.2155 2.71349 10.751 2.249L12.8033 0.196698Z" fill="#000E11"/>
</svg>
