<svg width="15" height="13" viewBox="0 0 15 13" fill="none" xmlns="http://www.w3.org/2000/svg">
<path d="M12.8033 0.196714C13.561 0.954428 14.1476 1.86571 14.5234 2.8692C14.8993 3.87268 15.0558 4.94506 14.9824 6.0141C14.9089 7.08315 14.6072 8.12405 14.0976 9.0667C13.588 10.0093 12.8824 10.8318 12.0281 11.4788C11.1739 12.1258 10.191 12.5822 9.14551 12.8173C8.10005 13.0524 7.01635 13.0607 5.96739 12.8418C4.91843 12.6228 3.92858 12.1816 3.06449 11.5478C2.2004 10.9141 1.48214 10.1026 0.958086 9.1679L3.48972 7.74848C3.81097 8.32145 4.25127 8.81893 4.78097 9.20742C5.31067 9.5959 5.91746 9.86637 6.56049 10.0006C7.20352 10.1348 7.86784 10.1297 8.50872 9.9856C9.1496 9.84147 9.75216 9.56169 10.2758 9.1651C10.7995 8.7685 11.2321 8.26429 11.5444 7.68644C11.8568 7.10859 12.0418 6.4705 12.0868 5.81516C12.1318 5.15982 12.0359 4.50243 11.8055 3.88729C11.575 3.27214 11.2155 2.71351 10.751 2.24902L12.8033 0.196714Z" fill="#DDF45B"/>
</svg>
