<svg xmlns="http://www.w3.org/2000/svg" xmlns:xlink="http://www.w3.org/1999/xlink">	
		<symbol id="close" viewBox="0 0 24.01 24.02" fill="currentColor">
			<path d="M1.23,24a1.24,1.24,0,0,1-.87-2.11L21.9.36a1.24,1.24,0,0,1,1.75,1.75L2.11,23.66A1.24,1.24,0,0,1,1.23,24Z"/><path d="M22.78,24a1.24,1.24,0,0,1-.88-.36L.36,2.11A1.24,1.24,0,0,1,2.11.36L23.65,21.91A1.24,1.24,0,0,1,22.78,24Z"/>
		</symbol>

		<symbol id="corner" width="10" height="6" viewBox="0 0 10 6" fill="currentColor">
			<path d="M5 5.1875L0.669874 0.6875L9.33013 0.687499L5 5.1875Z"/>
		</symbol>
		
		<symbol id="facebook" viewBox="0 0 20 20" fill="currentColor">
			<rect width="20" height="20" rx="10" fill="#000"></rect><path d="M13.893 12.89l.443-2.89h-2.774V8.125c0-.791.387-1.563 1.63-1.563h1.261v-2.46s-1.144-.196-2.238-.196c-2.285 0-3.777 1.385-3.777 3.89V10h-2.54v2.89h2.54v6.989a10.058 10.058 0 0 0 3.124 0V12.89h2.33z"></path>
		</symbol>
	
		<symbol id="google" viewBox="0 0 21 22" fill="currentColor">
			<path fill-rule="evenodd" clip-rule="evenodd" d="M20.813 11.137c0-.72-.065-1.414-.185-2.079h-9.573v3.932h5.47a4.676 4.676 0 0 1-2.028 3.068v2.55h3.285c1.922-1.77 3.03-4.375 3.03-7.47z"></path><path fill-rule="evenodd" clip-rule="evenodd" d="M11.055 21.07c2.744 0 5.045-.91 6.727-2.462l-3.285-2.55c-.91.61-2.075.97-3.442.97-2.648 0-4.889-1.789-5.688-4.191H1.971v2.633a10.16 10.16 0 0 0 9.084 5.6z"></path><path fill-rule="evenodd" clip-rule="evenodd" d="M5.367 12.837a6.11 6.11 0 0 1-.319-1.93c0-.67.116-1.322.32-1.932V6.34H1.97a10.16 10.16 0 0 0-1.08 4.565c0 1.64.392 3.193 1.08 4.565l3.396-2.634z"></path><path fill-rule="evenodd" clip-rule="evenodd" d="M11.055 4.784c1.492 0 2.832.513 3.885 1.52l2.916-2.915C16.096 1.75 13.794.742 11.055.742a10.16 10.16 0 0 0-9.084 5.6l3.396 2.633c.8-2.403 3.04-4.19 5.688-4.19z"></path>
		</symbol>
	
		<symbol id="instagram" viewBox="0 0 20 20" fill="currentColor">
			<path d="M10 1.802c2.672 0 2.985.012 4.041.06.977.044 1.505.206 1.858.345.469.183.802.397 1.151.747.35.349.568.682.747 1.15.135.354.302.882.345 1.859.048 1.056.06 1.37.06 4.041 0 2.672-.012 2.985-.06 4.041-.043.977-.206 1.505-.345 1.858a3.104 3.104 0 0 1-.747 1.151c-.349.35-.682.568-1.15.747-.354.135-.882.301-1.859.345-1.056.048-1.37.06-4.041.06-2.672 0-2.985-.012-4.041-.06-.977-.044-1.505-.206-1.858-.345a3.104 3.104 0 0 1-1.151-.747 3.055 3.055 0 0 1-.747-1.15c-.135-.354-.301-.882-.345-1.859-.048-1.056-.06-1.37-.06-4.041 0-2.672.012-2.985.06-4.041.044-.977.206-1.505.345-1.858.183-.469.397-.802.747-1.151.349-.35.682-.568 1.15-.747.354-.135.882-.301 1.859-.345 1.056-.052 1.373-.06 4.041-.06zM10 0C7.285 0 6.943.012 5.875.06 4.811.107 4.085.278 3.45.524c-.66.254-1.215.6-1.77 1.155A4.96 4.96 0 0 0 .523 3.45C.278 4.086.107 4.812.06 5.88.012 6.943 0 7.285 0 10c0 2.715.012 3.057.06 4.125.047 1.064.218 1.79.464 2.43.254.658.6 1.214 1.155 1.77a4.961 4.961 0 0 0 1.77 1.155c.636.246 1.362.417 2.43.464 1.068.048 1.406.06 4.125.06 2.72 0 3.057-.012 4.125-.06 1.064-.047 1.79-.218 2.43-.464a4.875 4.875 0 0 0 1.77-1.155 4.959 4.959 0 0 0 1.155-1.77c.246-.636.417-1.362.464-2.43.048-1.068.06-1.406.06-4.125 0-2.72-.012-3.057-.06-4.125-.047-1.064-.218-1.79-.464-2.43a4.873 4.873 0 0 0-1.155-1.77A4.96 4.96 0 0 0 16.559.52c-.636-.246-1.363-.417-2.43-.464C13.057.012 12.715 0 10 0z" fill="#000"></path><path d="M10 1.802c2.672 0 2.985.012 4.041.06.977.044 1.505.206 1.858.345.469.183.802.397 1.151.747.35.349.568.682.747 1.15.135.354.302.882.345 1.859.048 1.056.06 1.37.06 4.041 0 2.672-.012 2.985-.06 4.041-.043.977-.206 1.505-.345 1.858a3.104 3.104 0 0 1-.747 1.151c-.349.35-.682.568-1.15.747-.354.135-.882.301-1.859.345-1.056.048-1.37.06-4.041.06-2.672 0-2.985-.012-4.041-.06-.977-.044-1.505-.206-1.858-.345a3.104 3.104 0 0 1-1.151-.747 3.055 3.055 0 0 1-.747-1.15c-.135-.354-.301-.882-.345-1.859-.048-1.056-.06-1.37-.06-4.041 0-2.672.012-2.985.06-4.041.044-.977.206-1.505.345-1.858.183-.469.397-.802.747-1.151.349-.35.682-.568 1.15-.747.354-.135.882-.301 1.859-.345 1.056-.052 1.373-.06 4.041-.06z" fill="#000"></path><path d="M10 4.867a5.138 5.138 0 1 0 .002 10.276A5.138 5.138 0 0 0 10 4.867zm0 8.468a3.334 3.334 0 1 1 0-6.669 3.334 3.334 0 0 1 0 6.669zM15.34 5.86a1.199 1.199 0 1 0 0-2.398 1.199 1.199 0 0 0 0 2.398z"></path>
		</symbol>
	
		<symbol id="linkedIn" viewBox="0 0 20 20" fill="currentColor">
			<path d="M18.524 0H1.476A1.476 1.476 0 0 0 0 1.476v17.048A1.476 1.476 0 0 0 1.476 20h17.048A1.476 1.476 0 0 0 20 18.524V1.476A1.476 1.476 0 0 0 18.524 0zM5.96 17.038H2.954V7.486h3.007v9.552zM4.456 6.162a1.726 1.726 0 1 1 1.736-1.724 1.702 1.702 0 0 1-1.736 1.724zm12.588 10.884H14.04v-5.218c0-1.54-.654-2.014-1.499-2.014-.891 0-1.766.672-1.766 2.053v5.179H7.767V7.493h2.891v1.324h.04c.29-.588 1.306-1.592 2.858-1.592 1.677 0 3.49.996 3.49 3.912l-.002 5.909z" fill="#000"></path>
		</symbol>
	
		<symbol id="register" viewBox="0 0 20 20" fill="currentColor">
			<path d="M14.8 0h-2.6C9 0 7 2 7 5.2v4.05h4.44L9.37 7.18a.742.742 0 0 1-.22-.53c0-.19.07-.38.22-.53.29-.29.77-.29 1.06 0l3.35 3.35c.29.29.29.77 0 1.06l-3.35 3.35c-.29.29-.77.29-1.06 0a.754.754 0 0 1 0-1.06l2.07-2.07H7v4.05C7 18 9 20 12.2 20h2.59c3.2 0 5.2-2 5.2-5.2V5.2C20 2 18 0 14.8 0zM.75 9.25c-.41 0-.75.34-.75.75s.34.75.75.75H7v-1.5H.75z"></path>
		</symbol>
	
</svg>
